<mxGraphModel dx="1020" dy="687" grid="1" gridSize="10" guides="1" tooltips="1" connect="1" arrows="1" fold="1" page="1" pageScale="1" pageWidth="850" pageHeight="1100" math="0" shadow="0">
  <root>
    <mxCell id="0" />
    <mxCell id="1" parent="0" />
    <mxCell id="aM9ryv3xv72pqoxQDRHE-1" value=":Recurrence" style="shape=umlLifeline;rounded=1;perimeter=lifelinePerimeter;whiteSpace=wrap;html=1;container=0;dropTarget=0;collapsible=0;recursiveResize=0;outlineConnect=0;portConstraint=eastwest;newEdgeStyle={&quot;edgeStyle&quot;:&quot;elbowEdgeStyle&quot;,&quot;elbow&quot;:&quot;vertical&quot;,&quot;curved&quot;:0,&quot;rounded&quot;:0};" parent="1" vertex="1">
      <mxGeometry x="58" y="59" width="100" height="490" as="geometry" />
    </mxCell>
    <mxCell id="aM9ryv3xv72pqoxQDRHE-2" value="" style="html=1;points=[];perimeter=orthogonalPerimeter;outlineConnect=0;targetShapes=umlLifeline;portConstraint=eastwest;newEdgeStyle={&quot;edgeStyle&quot;:&quot;elbowEdgeStyle&quot;,&quot;elbow&quot;:&quot;vertical&quot;,&quot;curved&quot;:0,&quot;rounded&quot;:0};" parent="aM9ryv3xv72pqoxQDRHE-1" vertex="1">
      <mxGeometry x="45" y="60" width="10" height="390" as="geometry" />
    </mxCell>
    <mxCell id="KprL8Gtzc8UCZSi8YQah-3" value="loop" style="shape=umlFrame;whiteSpace=wrap;html=1;pointerEvents=0;" parent="1" vertex="1">
      <mxGeometry x="38" y="220" width="740" height="240" as="geometry" />
    </mxCell>
    <mxCell id="KprL8Gtzc8UCZSi8YQah-4" value="[until checkDate is after current date]" style="text;html=1;align=center;verticalAlign=middle;whiteSpace=wrap;rounded=0;" parent="1" vertex="1">
      <mxGeometry x="109" y="220" width="210" height="30" as="geometry" />
    </mxCell>
    <mxCell id="KprL8Gtzc8UCZSi8YQah-5" value="" style="shape=note;whiteSpace=wrap;html=1;backgroundOutline=1;darkOpacity=0.05;rotation=90;size=23;" parent="1" vertex="1">
      <mxGeometry x="185" y="423" width="85.5" height="178.5" as="geometry" />
    </mxCell>
    <mxCell id="KprL8Gtzc8UCZSi8YQah-6" value="checkDate is the last recurred date of the entry, loop increments checkDate by recurrence frequency (1day/1month/1year)" style="text;html=1;align=center;verticalAlign=middle;whiteSpace=wrap;rounded=0;" parent="1" vertex="1">
      <mxGeometry x="146.25" y="496.75" width="163" height="31" as="geometry" />
    </mxCell>
    <mxCell id="KprL8Gtzc8UCZSi8YQah-7" value="" style="endArrow=none;dashed=1;html=1;rounded=0;exitX=0;exitY=0;exitDx=28.5;exitDy=0;exitPerimeter=0;entryX=0.435;entryY=0.992;entryDx=0;entryDy=0;entryPerimeter=0;" parent="1" source="KprL8Gtzc8UCZSi8YQah-5" target="KprL8Gtzc8UCZSi8YQah-3" edge="1">
      <mxGeometry width="50" height="50" relative="1" as="geometry">
        <mxPoint x="228" y="469" as="sourcePoint" />
        <mxPoint x="278" y="419" as="targetPoint" />
      </mxGeometry>
    </mxCell>
    <mxCell id="KprL8Gtzc8UCZSi8YQah-8" value="newEntry&lt;br&gt;:Income" style="shape=umlLifeline;rounded=1;perimeter=lifelinePerimeter;whiteSpace=wrap;html=1;container=0;dropTarget=0;collapsible=0;recursiveResize=0;outlineConnect=0;portConstraint=eastwest;newEdgeStyle={&quot;edgeStyle&quot;:&quot;elbowEdgeStyle&quot;,&quot;elbow&quot;:&quot;vertical&quot;,&quot;curved&quot;:0,&quot;rounded&quot;:0};" parent="1" vertex="1">
      <mxGeometry x="468" y="243" width="100" height="307" as="geometry" />
    </mxCell>
    <mxCell id="KprL8Gtzc8UCZSi8YQah-9" value="" style="html=1;points=[];perimeter=orthogonalPerimeter;outlineConnect=0;targetShapes=umlLifeline;portConstraint=eastwest;newEdgeStyle={&quot;edgeStyle&quot;:&quot;elbowEdgeStyle&quot;,&quot;elbow&quot;:&quot;vertical&quot;,&quot;curved&quot;:0,&quot;rounded&quot;:0};" parent="KprL8Gtzc8UCZSi8YQah-8" vertex="1">
      <mxGeometry x="45" y="40" width="10" height="20" as="geometry" />
    </mxCell>
    <mxCell id="KprL8Gtzc8UCZSi8YQah-17" value="" style="endArrow=block;html=1;rounded=0;endFill=1;" parent="1" edge="1">
      <mxGeometry width="50" height="50" relative="1" as="geometry">
        <mxPoint x="113" y="265" as="sourcePoint" />
        <mxPoint x="468" y="265" as="targetPoint" />
      </mxGeometry>
    </mxCell>
    <mxCell id="KprL8Gtzc8UCZSi8YQah-18" value="&lt;span style=&quot;text-wrap-mode: nowrap; background-color: rgb(255, 255, 255);&quot;&gt;&lt;font style=&quot;font-size: 12px;&quot;&gt;Income(copyEntry : Income)&lt;/font&gt;&lt;/span&gt;" style="text;html=1;align=center;verticalAlign=middle;whiteSpace=wrap;rounded=0;" parent="1" vertex="1">
      <mxGeometry x="259" y="241" width="60" height="30" as="geometry" />
    </mxCell>
    <mxCell id="KprL8Gtzc8UCZSi8YQah-19" value="&lt;font style=&quot;font-size: 12px;&quot;&gt;new copied Income object&lt;/font&gt;" style="html=1;verticalAlign=bottom;endArrow=block;dashed=1;endSize=8;edgeStyle=elbowEdgeStyle;elbow=vertical;curved=0;rounded=0;endFill=1;" parent="1" edge="1">
      <mxGeometry relative="1" as="geometry">
        <mxPoint x="113" y="303" as="targetPoint" />
        <Array as="points">
          <mxPoint x="358" y="303" />
        </Array>
        <mxPoint x="513" y="303" as="sourcePoint" />
      </mxGeometry>
    </mxCell>
    <mxCell id="KprL8Gtzc8UCZSi8YQah-20" value="incomes&lt;div&gt;: IncomeList&lt;/div&gt;" style="shape=umlLifeline;rounded=1;perimeter=lifelinePerimeter;whiteSpace=wrap;html=1;container=0;dropTarget=0;collapsible=0;recursiveResize=0;outlineConnect=0;portConstraint=eastwest;newEdgeStyle={&quot;edgeStyle&quot;:&quot;elbowEdgeStyle&quot;,&quot;elbow&quot;:&quot;vertical&quot;,&quot;curved&quot;:0,&quot;rounded&quot;:0};" parent="1" vertex="1">
      <mxGeometry x="588" y="59" width="100" height="490" as="geometry" />
    </mxCell>
    <mxCell id="KprL8Gtzc8UCZSi8YQah-21" value="" style="html=1;points=[];perimeter=orthogonalPerimeter;outlineConnect=0;targetShapes=umlLifeline;portConstraint=eastwest;newEdgeStyle={&quot;edgeStyle&quot;:&quot;elbowEdgeStyle&quot;,&quot;elbow&quot;:&quot;vertical&quot;,&quot;curved&quot;:0,&quot;rounded&quot;:0};" parent="KprL8Gtzc8UCZSi8YQah-20" vertex="1">
      <mxGeometry x="45" y="349" width="10" height="21" as="geometry" />
    </mxCell>
    <mxCell id="KprL8Gtzc8UCZSi8YQah-22" value="" style="endArrow=block;html=1;rounded=0;endFill=1;" parent="1" edge="1">
      <mxGeometry width="50" height="50" relative="1" as="geometry">
        <mxPoint x="112" y="408" as="sourcePoint" />
        <mxPoint x="633" y="408" as="targetPoint" />
      </mxGeometry>
    </mxCell>
    <mxCell id="KprL8Gtzc8UCZSi8YQah-23" value="add(newEntry : Income)" style="text;html=1;align=center;verticalAlign=middle;whiteSpace=wrap;rounded=0;" parent="1" vertex="1">
      <mxGeometry x="287" y="381" width="141" height="30" as="geometry" />
    </mxCell>
    <mxCell id="KprL8Gtzc8UCZSi8YQah-24" value="" style="html=1;verticalAlign=bottom;endArrow=block;dashed=1;endSize=8;edgeStyle=elbowEdgeStyle;elbow=vertical;curved=0;rounded=0;endFill=1;" parent="1" edge="1">
      <mxGeometry relative="1" as="geometry">
        <mxPoint x="113" y="429" as="targetPoint" />
        <Array as="points">
          <mxPoint x="363" y="429" />
        </Array>
        <mxPoint x="632" y="429" as="sourcePoint" />
      </mxGeometry>
    </mxCell>
    <mxCell id="KprL8Gtzc8UCZSi8YQah-25" value="return" style="text;html=1;align=center;verticalAlign=middle;whiteSpace=wrap;rounded=0;" parent="1" vertex="1">
      <mxGeometry x="327" y="405" width="60" height="30" as="geometry" />
    </mxCell>
    <mxCell id="KprL8Gtzc8UCZSi8YQah-26" value="&lt;b&gt;sd&lt;/b&gt;&amp;nbsp; &amp;nbsp; &amp;nbsp;add recurring entry" style="shape=umlFrame;whiteSpace=wrap;html=1;pointerEvents=0;width=210;height=30;" parent="1" vertex="1">
      <mxGeometry x="10" y="20" width="810" height="540" as="geometry" />
    </mxCell>
    <mxCell id="KprL8Gtzc8UCZSi8YQah-31" value="&lt;font style=&quot;font-size: 12px;&quot;&gt;last recurred date&lt;/font&gt;" style="html=1;verticalAlign=bottom;endArrow=block;dashed=1;endSize=8;edgeStyle=elbowEdgeStyle;elbow=vertical;curved=0;rounded=0;endFill=1;" parent="1" edge="1">
      <mxGeometry relative="1" as="geometry">
        <mxPoint x="113" y="183" as="targetPoint" />
        <Array as="points">
          <mxPoint x="208" y="183" />
        </Array>
        <mxPoint x="449.5" y="183" as="sourcePoint" />
      </mxGeometry>
    </mxCell>
    <mxCell id="TOYoqEuzPOpz55d3jZ_0-1" value="" style="endArrow=block;html=1;rounded=0;endFill=1;" parent="1" target="TOYoqEuzPOpz55d3jZ_0-3" edge="1">
      <mxGeometry width="50" height="50" relative="1" as="geometry">
        <mxPoint x="113" y="153" as="sourcePoint" />
        <mxPoint x="363" y="153" as="targetPoint" />
      </mxGeometry>
    </mxCell>
    <mxCell id="TOYoqEuzPOpz55d3jZ_0-2" value="recurringIncome&lt;br&gt;&lt;div&gt;: Income&lt;/div&gt;" style="shape=umlLifeline;rounded=1;perimeter=lifelinePerimeter;whiteSpace=wrap;html=1;container=0;dropTarget=0;collapsible=0;recursiveResize=0;outlineConnect=0;portConstraint=eastwest;newEdgeStyle={&quot;edgeStyle&quot;:&quot;elbowEdgeStyle&quot;,&quot;elbow&quot;:&quot;vertical&quot;,&quot;curved&quot;:0,&quot;rounded&quot;:0};" parent="1" vertex="1">
      <mxGeometry x="400" y="60" width="100" height="490" as="geometry" />
    </mxCell>
    <mxCell id="TOYoqEuzPOpz55d3jZ_0-3" value="" style="html=1;points=[];perimeter=orthogonalPerimeter;outlineConnect=0;targetShapes=umlLifeline;portConstraint=eastwest;newEdgeStyle={&quot;edgeStyle&quot;:&quot;elbowEdgeStyle&quot;,&quot;elbow&quot;:&quot;vertical&quot;,&quot;curved&quot;:0,&quot;rounded&quot;:0};" parent="TOYoqEuzPOpz55d3jZ_0-2" vertex="1">
      <mxGeometry x="45" y="94" width="10" height="30" as="geometry" />
    </mxCell>
    <mxCell id="TOYoqEuzPOpz55d3jZ_0-4" value="getLastRecurrence()" style="text;html=1;align=center;verticalAlign=middle;whiteSpace=wrap;rounded=0;" parent="1" vertex="1">
      <mxGeometry x="144" y="127" width="270" height="30" as="geometry" />
    </mxCell>
    <mxCell id="TOYoqEuzPOpz55d3jZ_0-8" value="" style="html=1;points=[];perimeter=orthogonalPerimeter;outlineConnect=0;targetShapes=umlLifeline;portConstraint=eastwest;newEdgeStyle={&quot;edgeStyle&quot;:&quot;elbowEdgeStyle&quot;,&quot;elbow&quot;:&quot;vertical&quot;,&quot;curved&quot;:0,&quot;rounded&quot;:0};" parent="1" vertex="1">
      <mxGeometry x="513" y="330" width="10" height="33" as="geometry" />
    </mxCell>
    <mxCell id="TOYoqEuzPOpz55d3jZ_0-9" value="" style="endArrow=block;html=1;rounded=0;endFill=1;" parent="1" edge="1">
      <mxGeometry width="50" height="50" relative="1" as="geometry">
        <mxPoint x="113" y="330" as="sourcePoint" />
        <mxPoint x="512" y="330" as="targetPoint" />
      </mxGeometry>
    </mxCell>
    <mxCell id="TOYoqEuzPOpz55d3jZ_0-10" value="&lt;span style=&quot;text-wrap-mode: nowrap; background-color: rgb(255, 255, 255);&quot;&gt;&lt;font style=&quot;font-size: 12px;&quot;&gt;editDateWithLocalDate(checkDate : LocalDate)&lt;/font&gt;&lt;/span&gt;" style="text;html=1;align=center;verticalAlign=middle;whiteSpace=wrap;rounded=0;" parent="1" vertex="1">
      <mxGeometry x="303" y="308" width="60" height="30" as="geometry" />
    </mxCell>
    <mxCell id="TOYoqEuzPOpz55d3jZ_0-14" value="&lt;font style=&quot;font-size: 12px;&quot;&gt;return&lt;/font&gt;" style="html=1;verticalAlign=bottom;endArrow=block;dashed=1;endSize=8;edgeStyle=elbowEdgeStyle;elbow=vertical;curved=0;rounded=0;endFill=1;" parent="1" edge="1">
      <mxGeometry relative="1" as="geometry">
        <mxPoint x="113" y="363" as="targetPoint" />
        <Array as="points">
          <mxPoint x="358" y="363" />
        </Array>
        <mxPoint x="513" y="363" as="sourcePoint" />
      </mxGeometry>
    </mxCell>
    <mxCell id="TOYoqEuzPOpz55d3jZ_0-16" value="" style="shape=note;whiteSpace=wrap;html=1;backgroundOutline=1;darkOpacity=0.05;rotation=90;size=23;" parent="1" vertex="1">
      <mxGeometry x="688.3399999999999" y="66.00000000000003" width="89.33" height="166" as="geometry" />
    </mxCell>
    <mxCell id="TOYoqEuzPOpz55d3jZ_0-17" value="&lt;font style=&quot;font-size: 12px;&quot;&gt;for monthly recurrence and yearly recurrence, this method is done within checkIfDateAltered(), an additional check due to varying days in months&lt;/font&gt;" style="text;html=1;align=center;verticalAlign=middle;whiteSpace=wrap;rounded=0;" parent="1" vertex="1">
      <mxGeometry x="654" y="133.50000000000003" width="144.33" height="31" as="geometry" />
    </mxCell>
    <mxCell id="TOYoqEuzPOpz55d3jZ_0-18" value="" style="endArrow=none;dashed=1;html=1;rounded=0;entryX=0.984;entryY=0.631;entryDx=0;entryDy=0;entryPerimeter=0;" parent="1" source="TOYoqEuzPOpz55d3jZ_0-8" target="TOYoqEuzPOpz55d3jZ_0-16" edge="1">
      <mxGeometry width="50" height="50" relative="1" as="geometry">
        <mxPoint x="390" y="270" as="sourcePoint" />
        <mxPoint x="440" y="220" as="targetPoint" />
      </mxGeometry>
    </mxCell>
    <mxCell id="TOYoqEuzPOpz55d3jZ_0-19" value="opt" style="shape=umlFrame;whiteSpace=wrap;html=1;pointerEvents=0;" parent="1" vertex="1">
      <mxGeometry x="70" y="370" width="590" height="80" as="geometry" />
    </mxCell>
    <mxCell id="TOYoqEuzPOpz55d3jZ_0-20" value="[if is updating recurrence]" style="text;html=1;align=center;verticalAlign=middle;whiteSpace=wrap;rounded=0;" parent="1" vertex="1">
      <mxGeometry x="110" y="363" width="210" height="30" as="geometry" />
    </mxCell>
    <mxCell id="7pzreqgpYu-oikFPspfE-3" value="" style="shape=note;whiteSpace=wrap;html=1;backgroundOutline=1;darkOpacity=0.05;rotation=90;size=23;" parent="1" vertex="1">
      <mxGeometry x="696.58" y="435.71" width="81.54" height="149.96" as="geometry" />
    </mxCell>
    <mxCell id="7pzreqgpYu-oikFPspfE-4" value="opt condition is based on the boolean parameter of checkIncomeRecurrence method, isAdding" style="text;html=1;align=center;verticalAlign=middle;whiteSpace=wrap;rounded=0;" parent="1" vertex="1">
      <mxGeometry x="679.67" y="492.25" width="110.33" height="30" as="geometry" />
    </mxCell>
    <mxCell id="7pzreqgpYu-oikFPspfE-6" value="" style="endArrow=none;dashed=1;html=1;rounded=0;exitX=1.003;exitY=0.527;exitDx=0;exitDy=0;exitPerimeter=0;entryX=0;entryY=0.5;entryDx=0;entryDy=0;entryPerimeter=0;" parent="1" source="TOYoqEuzPOpz55d3jZ_0-19" target="7pzreqgpYu-oikFPspfE-3" edge="1">
      <mxGeometry width="50" height="50" relative="1" as="geometry">
        <mxPoint x="400" y="350" as="sourcePoint" />
        <mxPoint x="450" y="300" as="targetPoint" />
      </mxGeometry>
    </mxCell>
  </root>
</mxGraphModel>
